<?xml version="1.0" encoding="UTF-8"?>
<svg id="Layer_1" data-name="Layer 1" xmlns="http://www.w3.org/2000/svg" viewBox="0 0 595.28 595.28">
  <defs>
    <style>
      .cls-1 {
        fill: #fff;
        stroke-width: 0px;
      }
    </style>
  </defs>
  <path class="cls-1" d="M107.96,384.93c2.82,0,4.75,0,6.68,0,57.33-.09,114.66-.04,171.99-.36,13.97-.08,27.46-3.37,39.87-10.07,23.99-12.95,34.24-34.14,35-60.43.84-29.15-8.49-53.49-35.2-68.56-14.14-7.98-29.72-10.7-45.74-10.79-31.33-.17-62.67-.02-94-.2-2.34-.01-5.39-.99-6.91-2.63-23.35-25.39-46.5-50.97-69.68-76.51-.53-.58-.93-1.27-2.04-2.8,2.71,0,4.61,0,6.51,0,52,0,104,.29,156-.22,11.85-.12,24.07-1.63,35.44-4.86,28.64-8.14,45.83-30.58,48.19-60.26,1.46-18.39-.97-35.9-10.58-52.49,1.31.97,2.76,1.8,3.9,2.93,12.98,12.92,26.13,25.69,38.82,38.9,20.32,21.15,40.48,42.46,60.4,63.98,13.46,14.54,25.05,30.36,29.43,50.31,10.58,48.24-20.08,94.45-68.78,103.67-2.74.52-5.48.99-9.17,1.66,1.65,1.85,2.77,3.15,3.94,4.41,17.69,19.05,35.77,37.74,52.95,57.23,13.58,15.41,23.98,32.92,27.5,53.61,5.54,32.58-.69,61.81-26.06,84.84-18.32,16.63-40.61,24.54-64.92,24.84-52.49.66-104.99.27-157.49.16-2,0-4.56-1.17-5.9-2.66-39.16-43.22-78.2-86.56-117.25-129.88-.84-.93-1.53-2-2.89-3.81Z"/>
</svg>