<?xml version="1.0" encoding="utf-8"?>
<!-- Generator: Adobe Illustrator 28.2.0, SVG Export Plug-In . SVG Version: 6.00 Build 0)  -->
<svg version="1.1" id="Layer_1" xmlns="http://www.w3.org/2000/svg" xmlns:xlink="http://www.w3.org/1999/xlink" x="0px" y="0px"
	 viewBox="0 0 138.2 138.2" style="enable-background:new 0 0 138.2 138.2;" xml:space="preserve">
<path d="M16.9,98.7c0.8,0,1.3,0,1.8,0c15.9,0,31.8,0,47.7-0.1c3.9,0,7.6-0.9,11.1-2.8c6.7-3.6,9.5-9.5,9.7-16.7
	c0.2-8.1-2.3-14.9-9.8-19c-3.9-2.2-8.3-3-12.7-3c-8.7,0-17.4,0-26.1-0.1c-0.7,0-1.5-0.3-1.9-0.7c-6.5-7-12.9-14.1-19.3-21.2
	c-0.2-0.2-0.3-0.3-0.6-0.8c0.8,0,1.3,0,1.8,0c14.4,0,28.9,0.1,43.3-0.1c3.3,0,6.7-0.4,9.8-1.3c7.9-2.3,12.7-8.5,13.4-16.7
	c0.4-5.1-0.3-10-2.9-14.6c0.4,0.3,0.8,0.5,1.1,0.8c3.6,3.6,7.3,7.2,10.8,10.8c5.7,5.9,11.3,11.8,16.7,17.7c3.7,4,6.9,8.4,8.2,14
	c2.9,13.4-5.5,26.2-19.1,28.8c-0.8,0.2-1.5,0.3-2.6,0.4c0.4,0.5,0.8,0.9,1.1,1.2c4.9,5.3,9.9,10.5,14.7,15.9
	c3.8,4.3,6.7,9.1,7.7,14.9c1.6,9-0.2,17.1-7.2,23.6c-5.1,4.6-11.3,6.8-18,6.9c-14.6,0.2-29.2,0.1-43.7,0c-0.6,0-1.3-0.3-1.7-0.7
	c-10.9-12-21.7-24-32.5-36C17.5,99.5,17.2,99.2,16.9,98.7L16.9,98.7z"/>
</svg>
