<?xml version="1.0" encoding="utf-8"?>
<!-- Generator: Adobe Illustrator 28.2.0, SVG Export Plug-In . SVG Version: 6.00 Build 0)  -->
<svg version="1.1"
	 id="svg1177" xmlns:inkscape="http://www.inkscape.org/namespaces/inkscape" xmlns:sodipodi="http://sodipodi.sourceforge.net/DTD/sodipodi-0.dtd" xmlns:svg="http://www.w3.org/2000/svg" xmlns:rdf="http://www.w3.org/1999/02/22-rdf-syntax-ns#" xmlns:dc="http://purl.org/dc/elements/1.1/" xmlns:cc="http://creativecommons.org/ns#"
	 xmlns="http://www.w3.org/2000/svg" xmlns:xlink="http://www.w3.org/1999/xlink" x="0px" y="0px" viewBox="0 0 409.6 60.7"
	 style="enable-background:new 0 0 409.6 60.7;" xml:space="preserve">
<style type="text/css">
	.st0{fill:#FFFFFF;}
</style>
<sodipodi:namedview  bordercolor="#111111" borderopacity="1" fit-margin-bottom="0" fit-margin-left="0" fit-margin-right="0" fit-margin-top="0" gridtolerance="10" guidetolerance="10" id="namedview1179" inkscape:current-layer="svg1177" inkscape:cx="591.11782" inkscape:cy="11.238214" inkscape:pageopacity="0" inkscape:pageshadow="2" inkscape:window-height="1017" inkscape:window-maximized="1" inkscape:window-width="1920" inkscape:window-x="1912" inkscape:window-y="-8" inkscape:zoom="0.91944444" objecttolerance="10" pagecolor="#ffffff" showgrid="false">
	</sodipodi:namedview>
<path id="path1175" inkscape:connector-curvature="0" class="st0" d="M371.3,35.5l3.9-11.5c2.1-6.4,3.1-9.2,3.7-11.7
	c0.8,2.4,1.5,5.1,3.7,11.6l3.8,11.6H371.3L371.3,35.5z M112.8,59.6h13.9V37.1h8.8L148,59.6h16.8l-15.2-23.8
	c8.3-2.4,12.9-8.3,12.9-17.1c0-10.2-7.3-17.4-20.5-17.4h-29.4v58.3H112.8z M139.5,25.9h-12.8V12.5h12.8c4.9,0,8.7,1.7,8.7,6.8
	C148.2,24.3,144.4,25.9,139.5,25.9z M59.2,59.6h44.5V48.4H73.1v-13H96V24.2H73.1V12.6h30.6V1.3H59.2V59.6z M194.9,60.9
	c17.3,0,25.4-8.3,25.4-18.6c0-10.8-8.3-16.5-20.8-18.3l-7.1-1c-4.8-0.7-7.4-2.7-7.4-6c0-3.3,2.7-6.2,9.2-6.2c7,0,10.6,3.7,12.2,8.9
	l13.4-4.2c-2.3-8.7-10-15.6-25.4-15.6c-15.3,0-24,8.3-24,17.9c0,10.9,7.1,16.2,19.1,17.8l7.3,1c6.5,0.9,8.9,3.2,8.9,6.5
	c0,3.9-3.3,6.8-10.8,6.8c-8.3,0-12.7-5.6-13.8-11.2l-13.8,4.5C169.5,53.4,178.2,60.9,194.9,60.9L194.9,60.9z M293.2,59.6h13.9V45
	l9.2-10L330,59.6h16.6l-20.8-35.1L347,1.3h-18.6l-21.3,24.4V1.3h-13.9V59.6L293.2,59.6z M229.5,59.6h14.1V35.5h23.1v24.1h14.1V1.3
	h-14.1V24h-23.1V1.3h-14.1V59.6z M348,59.6h15l4.4-12.8h22.9l4.2,12.8H410L388.6,1.3h-19.1L348,59.6z M26.1,24.4l-12.2-0.1V12.4
	h12.2c5.2,0,8.3,1.6,8.3,5.9C34.4,22.5,31.2,24.4,26.1,24.4z M26.3,48.5H13.9V34.9l12.4-0.1c5.5,0,9.5,2,9.5,6.9
	S31.8,48.5,26.3,48.5L26.3,48.5z M0,59.6h28.5C41,59.6,50,53.5,50,43.4c0-7.3-5-12.9-13.6-14.3C44.1,27,48,22.3,48,15.4
	C48,7,41.3,1.3,28.4,1.3H0V59.6z"/>
</svg>
